<svg width="34" height="34" viewBox="0 0 34 34" fill="none" xmlns="http://www.w3.org/2000/svg">
<path fill-rule="evenodd" clip-rule="evenodd" d="M15.7238 0.0319943C13.2565 0.268252 11.381 0.792724 9.3313 1.81974C6.63377 3.17132 4.13249 5.4644 2.48743 8.09407C1.29977 9.99244 0.433311 12.447 0.0834436 14.9041C-0.0278145 15.6855 -0.0278145 18.3084 0.0834436 19.0898C0.362087 21.0467 0.879807 22.761 1.68867 24.4049C2.60381 26.2648 3.50019 27.5143 4.98006 28.9929C6.44377 30.4551 7.71396 31.3683 9.50586 32.2465C10.7562 32.8592 11.5634 33.1575 12.831 33.4751C16.157 34.3086 19.4928 34.1488 22.7424 33.0003C23.7274 32.6522 25.4469 31.7912 26.3309 31.2036C28.7581 29.59 30.764 27.362 32.0921 24.8044C33.2937 22.4903 33.895 20.1944 33.9888 17.5617C34.0898 14.7281 33.5065 12.0313 32.2447 9.4964C31.4161 7.8319 30.4936 6.52736 29.1984 5.18841C27.7622 3.7035 26.3534 2.679 24.4688 1.74872C22.499 0.77638 20.6636 0.257356 18.4837 0.0561117C17.8061 -0.00640761 16.2659 -0.0198948 15.7238 0.0319943ZM21.494 9.40093L21.5118 11.0733L20.297 11.0951C18.4602 11.1283 18.4504 11.1382 18.4504 12.9752V14.14H20.0132C20.8727 14.14 21.576 14.1489 21.576 14.1598C21.576 14.1707 21.5012 14.8913 21.4097 15.7612C21.3183 16.6311 21.2435 17.3995 21.2435 17.4689C21.2435 17.5886 21.174 17.5949 19.8469 17.5949H18.4504V22.5114V27.4279H16.3888H14.3273V22.5114V17.5949H13.363H12.3987V15.8675V14.14H13.3553H14.3118L14.3443 12.5953C14.3811 10.8466 14.4502 10.4719 14.8903 9.63513C15.4375 8.59495 16.4398 7.93521 17.7296 7.76639C17.9615 7.73603 18.8993 7.7151 19.8137 7.71988L21.4762 7.72865L21.494 9.40093Z" fill="white"/>
</svg>
